<svg id="Flat" height="512" viewBox="0 0 512 512" width="512" xmlns="http://www.w3.org/2000/svg"><path d="m216 160 86.445-104.968a32 32 0 0 1 50.065.831l135.49 176.137v88h-280z" fill="#5f8c66"/><path d="m387.13 100.87-17.318 17.318a16 16 0 0 1 -20.913 1.486l-20.899-15.674-21.732 16.3a16 16 0 0 1 -20.013-.653l-21.7-18.606 37.89-46.01a32.007 32.007 0 0 1 50.07.83z" fill="#88c791"/><path d="m174.246 138.923-46.246 77.077-9.652-5.791a32 32 0 0 0 -45.418 13.814l-48.93 103.977v40h312v-72l-107.853-158.607a32 32 0 0 0 -53.901 1.53z" fill="#6a9c72"/><path d="m257.3 180.25-24.122 20.1a16 16 0 0 1 -19.118 1.021l-14.06-9.371-14.06 9.373a16 16 0 0 1 -19.118-1.021l-19.622-16.352 27.05-45.08a32 32 0 0 1 53.9-1.53z" fill="#88c791"/><path d="m448 112a8 8 0 0 1 -7.949-7.1c-.571-5.049-1.352-11.964-18.42-17.256a8 8 0 1 1 4.738-15.284c10.508 3.257 17.261 7.565 21.631 12.251 4.37-4.686 11.123-8.994 21.631-12.252a8 8 0 0 1 4.738 15.282c-17.069 5.293-17.849 12.208-18.42 17.259a8 8 0 0 1 -7.949 7.1z" fill="#6a7073"/><path d="m224 72a8 8 0 0 1 -7.949-7.1c-.571-5.049-1.352-11.964-18.42-17.257a8 8 0 0 1 4.738-15.282c10.507 3.256 17.261 7.564 21.631 12.25 4.37-4.686 11.124-8.994 21.631-12.252a8 8 0 1 1 4.738 15.282c-17.069 5.293-17.849 12.208-18.42 17.259a8 8 0 0 1 -7.949 7.1z" fill="#6a7073"/><path d="m24 384s216-120 464-152v224h-464z" fill="#a0ab65"/><path d="m416 376a8 8 0 0 1 -8-8v-56a8 8 0 0 1 16 0v56a8 8 0 0 1 -8 8z" fill="#6a9c72"/><path d="m456 312h-72l32-104z" fill="#88c791"/><path d="m344 392a8 8 0 0 1 -8-8v-64a8 8 0 0 1 16 0v64a8 8 0 0 1 -8 8z" fill="#6a9c72"/><path d="m384 328h-80l40-136z" fill="#88c791"/><path d="m400 488c-64-80-192-152-288-152-48.662 0-88 16-88 16v136z" fill="#b1bd70"/><path d="m192 488s56-128 296-128v128z" fill="#cfdb8c"/><path d="m168 64a24.015 24.015 0 0 1 -31.2 22.9 40.007 40.007 0 0 1 -65.6 0 24 24 0 1 1 0-45.8 40.007 40.007 0 0 1 65.6 0 24.015 24.015 0 0 1 31.2 22.9z" fill="#a3d4f7"/></svg>