<svg width="239" height="57" viewBox="0 0 239 57" fill="none" xmlns="http://www.w3.org/2000/svg">
<path d="M4 33.3731V52L34 41.9701L4 33.3731ZM4 33.3731V4H34V23.3433L4 33.3731Z" stroke="#118DF0" stroke-width="7"/>
<path d="M72.4531 34.5547C72.4531 38.6172 71.5859 41.7891 69.8516 44.0703C68.1172 46.3359 65.6953 47.4688 62.5859 47.4688C59.8359 47.4688 57.6406 46.4141 56 44.3047L55.6953 47H49.6016V11H56.375V23.9141C57.9375 22.0859 59.9922 21.1719 62.5391 21.1719C65.6328 21.1719 68.0547 22.3125 69.8047 24.5938C71.5703 26.8594 72.4531 30.0547 72.4531 34.1797V34.5547ZM65.6797 34.0625C65.6797 31.5 65.2734 29.6328 64.4609 28.4609C63.6484 27.2734 62.4375 26.6797 60.8281 26.6797C58.6719 26.6797 57.1875 27.5625 56.375 29.3281V39.3359C57.2031 41.1172 58.7031 42.0078 60.875 42.0078C63.0625 42.0078 64.5 40.9297 65.1875 38.7734C65.5156 37.7422 65.6797 36.1719 65.6797 34.0625ZM88.3203 47.4688C84.6016 47.4688 81.5703 46.3281 79.2266 44.0469C76.8984 41.7656 75.7344 38.7266 75.7344 34.9297V34.2734C75.7344 31.7266 76.2266 29.4531 77.2109 27.4531C78.1953 25.4375 79.5859 23.8906 81.3828 22.8125C83.1953 21.7188 85.2578 21.1719 87.5703 21.1719C91.0391 21.1719 93.7656 22.2656 95.75 24.4531C97.75 26.6406 98.75 29.7422 98.75 33.7578V36.5234H82.6016C82.8203 38.1797 83.4766 39.5078 84.5703 40.5078C85.6797 41.5078 87.0781 42.0078 88.7656 42.0078C91.375 42.0078 93.4141 41.0625 94.8828 39.1719L98.2109 42.8984C97.1953 44.3359 95.8203 45.4609 94.0859 46.2734C92.3516 47.0703 90.4297 47.4688 88.3203 47.4688ZM87.5469 26.6562C86.2031 26.6562 85.1094 27.1094 84.2656 28.0156C83.4375 28.9219 82.9062 30.2188 82.6719 31.9062H92.0938V31.3672C92.0625 29.8672 91.6562 28.7109 90.875 27.8984C90.0938 27.0703 88.9844 26.6562 87.5469 26.6562ZM111.828 36.8281L109.391 39.2656V47H102.617V11H109.391V30.9453L110.703 29.2578L117.195 21.6406H125.328L116.164 32.2109L126.125 47H118.344L111.828 36.8281ZM142.953 47C142.641 46.3906 142.414 45.6328 142.273 44.7266C140.633 46.5547 138.5 47.4688 135.875 47.4688C133.391 47.4688 131.328 46.75 129.688 45.3125C128.062 43.875 127.25 42.0625 127.25 39.875C127.25 37.1875 128.242 35.125 130.227 33.6875C132.227 32.25 135.109 31.5234 138.875 31.5078H141.992V30.0547C141.992 28.8828 141.688 27.9453 141.078 27.2422C140.484 26.5391 139.539 26.1875 138.242 26.1875C137.102 26.1875 136.203 26.4609 135.547 27.0078C134.906 27.5547 134.586 28.3047 134.586 29.2578H127.812C127.812 27.7891 128.266 26.4297 129.172 25.1797C130.078 23.9297 131.359 22.9531 133.016 22.25C134.672 21.5312 136.531 21.1719 138.594 21.1719C141.719 21.1719 144.195 21.9609 146.023 23.5391C147.867 25.1016 148.789 27.3047 148.789 30.1484V41.1406C148.805 43.5469 149.141 45.3672 149.797 46.6016V47H142.953ZM137.352 42.2891C138.352 42.2891 139.273 42.0703 140.117 41.6328C140.961 41.1797 141.586 40.5781 141.992 39.8281V35.4688H139.461C136.07 35.4688 134.266 36.6406 134.047 38.9844L134.023 39.3828C134.023 40.2266 134.32 40.9219 134.914 41.4688C135.508 42.0156 136.32 42.2891 137.352 42.2891ZM167.727 39.9922C167.727 39.1641 167.312 38.5156 166.484 38.0469C165.672 37.5625 164.359 37.1328 162.547 36.7578C156.516 35.4922 153.5 32.9297 153.5 29.0703C153.5 26.8203 154.43 24.9453 156.289 23.4453C158.164 21.9297 160.609 21.1719 163.625 21.1719C166.844 21.1719 169.414 21.9297 171.336 23.4453C173.273 24.9609 174.242 26.9297 174.242 29.3516H167.469C167.469 28.3828 167.156 27.5859 166.531 26.9609C165.906 26.3203 164.93 26 163.602 26C162.461 26 161.578 26.2578 160.953 26.7734C160.328 27.2891 160.016 27.9453 160.016 28.7422C160.016 29.4922 160.367 30.1016 161.07 30.5703C161.789 31.0234 162.992 31.4219 164.68 31.7656C166.367 32.0938 167.789 32.4688 168.945 32.8906C172.523 34.2031 174.312 36.4766 174.312 39.7109C174.312 42.0234 173.32 43.8984 171.336 45.3359C169.352 46.7578 166.789 47.4688 163.648 47.4688C161.523 47.4688 159.633 47.0938 157.977 46.3438C156.336 45.5781 155.047 44.5391 154.109 43.2266C153.172 41.8984 152.703 40.4688 152.703 38.9375H159.125C159.188 40.1406 159.633 41.0625 160.461 41.7031C161.289 42.3438 162.398 42.6641 163.789 42.6641C165.086 42.6641 166.062 42.4219 166.719 41.9375C167.391 41.4375 167.727 40.7891 167.727 39.9922ZM193.391 47C193.078 46.3906 192.852 45.6328 192.711 44.7266C191.07 46.5547 188.938 47.4688 186.312 47.4688C183.828 47.4688 181.766 46.75 180.125 45.3125C178.5 43.875 177.688 42.0625 177.688 39.875C177.688 37.1875 178.68 35.125 180.664 33.6875C182.664 32.25 185.547 31.5234 189.312 31.5078H192.43V30.0547C192.43 28.8828 192.125 27.9453 191.516 27.2422C190.922 26.5391 189.977 26.1875 188.68 26.1875C187.539 26.1875 186.641 26.4609 185.984 27.0078C185.344 27.5547 185.023 28.3047 185.023 29.2578H178.25C178.25 27.7891 178.703 26.4297 179.609 25.1797C180.516 23.9297 181.797 22.9531 183.453 22.25C185.109 21.5312 186.969 21.1719 189.031 21.1719C192.156 21.1719 194.633 21.9609 196.461 23.5391C198.305 25.1016 199.227 27.3047 199.227 30.1484V41.1406C199.242 43.5469 199.578 45.3672 200.234 46.6016V47H193.391ZM187.789 42.2891C188.789 42.2891 189.711 42.0703 190.555 41.6328C191.398 41.1797 192.023 40.5781 192.43 39.8281V35.4688H189.898C186.508 35.4688 184.703 36.6406 184.484 38.9844L184.461 39.3828C184.461 40.2266 184.758 40.9219 185.352 41.4688C185.945 42.0156 186.758 42.2891 187.789 42.2891ZM210.664 21.6406L210.875 24.5703C212.688 22.3047 215.117 21.1719 218.164 21.1719C220.852 21.1719 222.852 21.9609 224.164 23.5391C225.477 25.1172 226.148 27.4766 226.18 30.6172V47H219.406V30.7812C219.406 29.3438 219.094 28.3047 218.469 27.6641C217.844 27.0078 216.805 26.6797 215.352 26.6797C213.445 26.6797 212.016 27.4922 211.062 29.1172V47H204.289V21.6406H210.664Z" fill="white"/>
</svg>
